<svg xmlns="http://www.w3.org/2000/svg" width="179" height="179" viewBox="0 0 179 179">
  <g id="free_shipping" transform="translate(-817 -161)">
    <rect id="Rectangle_67" data-name="Rectangle 67" width="179" height="179" transform="translate(817 161)" fill="none"/>
    <circle id="Ellipse_23" data-name="Ellipse 23" cx="72.124" cy="72.124" r="72.124" transform="translate(833.749 172.859)" fill="#eeefff"/>
    <path id="Path_119" data-name="Path 119" d="M815.82,236.715h0a10.261,10.261,0,0,0-10.26-10.26H801.71a10.26,10.26,0,0,0-10.26,10.26h0a12.233,12.233,0,0,0-12.233,12.233h0a4.565,4.565,0,0,0,4.565,4.566h45.424a4.566,4.566,0,0,0,4.566-4.566h0a12.233,12.233,0,0,0-12.233-12.233Z" transform="translate(160.493 1.296)" fill="#fff"/>
    <path id="Path_122" data-name="Path 122" d="M684.609,149.025h0a11.747,11.747,0,0,0-11.747-11.747h-4.409a11.747,11.747,0,0,0-11.747,11.747h0A14.006,14.006,0,0,0,642.7,163.032h0a5.227,5.227,0,0,0,5.227,5.227h52.009a5.227,5.227,0,0,0,5.228-5.227h0a14.007,14.007,0,0,0-14.006-14.007Z" transform="translate(204.952 33.152)" fill="#ccd9f6"/>
    <path id="Path_123" data-name="Path 123" d="M704.482,183.765" transform="translate(189.81 21.759)" fill="#fff"/>
    <path id="Path_135" data-name="Path 135" d="M805.823,130.949c.414,1.239.8,2.334,1.148,3.439a7.258,7.258,0,0,0,4.954,4.932c1.086.353,2.165.724,3.377,1.131-1.333.447-2.539.842-3.738,1.255a6.864,6.864,0,0,0-4.333,4.126c-.456,1.157-.813,2.355-1.215,3.533-.049.145-.1.288-.2.554-.413-1.241-.789-2.367-1.162-3.494a7.066,7.066,0,0,0-3.711-4.37,36.629,36.629,0,0,0-3.7-1.3c-.251-.089-.5-.171-.885-.3.833-.281,1.548-.52,2.261-.764a17.158,17.158,0,0,0,2.423-.9,7.175,7.175,0,0,0,3.635-4.38C805.024,133.3,805.407,132.2,805.823,130.949Z" transform="translate(167.293 34.703)" fill="#eeefff"/>
    <g id="Group_70" data-name="Group 70" transform="translate(13 8.401)">
      <path id="Path_111" data-name="Path 111" d="M717.235,200.873l7.121,7.789-8.011,3.116.668,35.606,8.456,3.338-.445,26.927-49.849,22.476L643.129,285.66v-8.679l10.237-4.006.668-9.124,10.9-4.228.445-9.347,10.014-3.116.223-34.493-8.456-3.116,8.456-7.789,21.809-6.9Z" transform="translate(204.651 18.912)" fill="#d6def3"/>
      <path id="Path_112" data-name="Path 112" d="M697.189,339.779,747.037,317.3l.445-27.52-26.927,11.795-.278,9.755-11.85,5.007-.834,10.031-9.847,5.007Z" transform="translate(182.637 -19.74)" fill="#969bee"/>
      <path id="Path_113" data-name="Path 113" d="M753.187,223.149l-8.067,4.006L740.5,228.49l-6.158-8.159-.74,47.215,20.251-8.79Z" transform="translate(167.808 8.541)" fill="#969bee"/>
      <path id="Path_114" data-name="Path 114" d="M759.167,246.3l-.445-22.534L746.649,229" transform="translate(162.496 7.14)" fill="#717acb"/>
      <path id="Path_115" data-name="Path 115" d="M720.464,227.5l7.956,11.405.723-19.639Z" transform="translate(173.159 8.975)" fill="#717acb"/>
      <path id="Path_116" data-name="Path 116" d="M653.366,326.634l32.212,13.742-9.847,5.007-32.6-14.743Z" transform="translate(204.651 -34.747)" fill="#fff"/>
      <path id="Path_117" data-name="Path 117" d="M661.525,307.459l32.379,14.02,11.85-5.007L672.54,301.951Z" transform="translate(197.16 -24.696)" fill="#fff"/>
      <path id="Path_118" data-name="Path 118" d="M692.13,206.5l22.031,7.566-8.679,8.234-21.809-8.011Z" transform="translate(188.14 14.173)" fill="#fff"/>
      <path id="Path_120" data-name="Path 120" d="M779.217,256.25" transform="translate(149.234 -6.085)" fill="#fff"/>
      <path id="Path_121" data-name="Path 121" d="M795.421,240.046" transform="translate(142.635 0.513)" fill="#fff"/>
      <path id="Path_124" data-name="Path 124" d="M734.04,195.114l21.027,6.076-20.832,8.325" transform="translate(167.63 18.81)" fill="#8700c1"/>
      <path id="Path_125" data-name="Path 125" d="M704.176,287.74" transform="translate(179.791 -18.909)" fill="none" stroke="#1b1f56" stroke-linejoin="round" stroke-width="2.5"/>
      <path id="Path_126" data-name="Path 126" d="M718.545,269.62l-21.41-8.451a.593.593,0,0,1-.375-.552V226.153h1.185v34.061l21.034,8.3Z" transform="translate(182.811 6.171)" fill="#1b1f56"/>
      <rect id="Rectangle_4" data-name="Rectangle 4" width="1.186" height="35.732" transform="matrix(0.392, -0.92, 0.92, 0.392, 869.764, 278.218)" fill="#1b1f56"/>
      <path id="Path_127" data-name="Path 127" d="M696.97,339.574l-.478-1.085,50.1-22.074-.037-26.506,1.186,0,.038,26.893a.592.592,0,0,1-.354.543Z" transform="translate(182.921 -19.791)" fill="#1b1f56"/>
      <path id="Path_128" data-name="Path 128" d="M734.808,300.2a.593.593,0,0,1-.238-1.136L760.9,287.553l-4.394-1.644a.593.593,0,0,1,.416-1.11l5.764,2.157a.593.593,0,0,1,.03,1.1l-27.675,12.1A.6.6,0,0,1,734.808,300.2Z" transform="translate(167.559 -17.695)" fill="#1b1f56"/>
      <path id="Path_129" data-name="Path 129" d="M680.2,286.144a.593.593,0,0,1-.19-1.154l6.8-2.309a.593.593,0,0,1,.381,1.123l-6.8,2.308A.6.6,0,0,1,680.2,286.144Z" transform="translate(189.796 -16.836)" fill="#1b1f56"/>
      <path id="Path_130" data-name="Path 130" d="M713.373,256.01a.593.593,0,0,1-.593-.593V210.691l-6.782,7.1a.592.592,0,0,1-.64.145l-21.638-8.244a.593.593,0,0,1-.216-.965l7.675-7.973a.593.593,0,0,1,.62-.149l.072.024,21.319-6.515a.594.594,0,0,1,.339,0l20.216,5.876a.589.589,0,0,1,.263.159l7.195,7.527a.593.593,0,0,1-.182.949l-7.853,3.586h.475v34.737a.592.592,0,0,1-.358.545l-19.677,8.475A.587.587,0,0,1,713.373,256.01Zm.593-45.443v43.949l18.491-7.965V212.53l-11.8,5.388a.593.593,0,0,1-.7-.159ZM684.98,208.9l20.433,7.784,7.308-7.647-20.871-7.165-.147.045Zm28.986-.184,6.614,7.936,19.19-8.764-6.508-6.809L713.368,195.3l-19.586,5.986,19.784,6.792a.592.592,0,0,1,.4.56Z" transform="translate(188.277 19.229)" fill="#1b1f56"/>
      <path id="Path_131" data-name="Path 131" d="M692.854,334.69a.6.6,0,0,1-.247-.053l-31.69-14.483a.594.594,0,0,1-.346-.539v-8.969h1.186v8.588l30.5,13.941v-8.3h1.186V334.1a.592.592,0,0,1-.273.5A.586.586,0,0,1,692.854,334.69Z" transform="translate(197.548 -28.236)" fill="#1b1f56"/>
      <path id="Path_132" data-name="Path 132" d="M675.066,345.361a.6.6,0,0,1-.25-.055l-32.555-15.136a.593.593,0,0,1,.039-1.091l11.057-4.238.424,1.107-9.751,3.737,31.032,14.427,9.94-4.768.513,1.069-10.192,4.89A.6.6,0,0,1,675.066,345.361Z" transform="translate(205.144 -34.017)" fill="#1b1f56"/>
      <path id="Path_133" data-name="Path 133" d="M693.5,315.655a.585.585,0,0,1-.238-.05l-32.333-14.23a.592.592,0,0,1,.01-1.089l10.92-4.585v-8.563a.593.593,0,0,1,.813-.55l32.85,13.1a.591.591,0,0,1,.373.543c.04,3.234.114,9.327.123,9.813,0,.012,0,.025,0,.038a.607.607,0,0,1-.468.59l-11.823,4.935A.6.6,0,0,1,693.5,315.655Zm-30.832-14.811L693.5,314.418l11.321-4.726v-.012l-.113-9.035-31.669-12.633v8.083a.592.592,0,0,1-.363.547Z" transform="translate(197.548 -18.422)" fill="#1b1f56"/>
      <path id="Path_134" data-name="Path 134" d="M674.508,357.141a.6.6,0,0,1-.254-.057l-32-15.14a.593.593,0,0,1-.339-.536v-8.485H643.1v8.109l30.87,14.607.5-7.619,1.183.077-.558,8.489a.594.594,0,0,1-.592.554Z" transform="translate(205.144 -37.308)" fill="#1b1f56"/>
      <rect id="Rectangle_5" data-name="Rectangle 5" width="1.186" height="14.557" transform="translate(901.047 213.907)" fill="#1b1f56"/>
    </g>
  </g>
</svg>
